<svg width="153" height="56" viewBox="0 0 153 56" fill="none" xmlns="http://www.w3.org/2000/svg">
<path d="M21.0367 37H17.3828L11.8132 27.4927H5.9598V37H2.66063V12.1675H12.5936C14.7221 12.1675 16.5432 12.9243 18.0568 14.4379C19.5704 15.9278 20.3272 17.7371 20.3272 19.8656C20.3272 21.4738 19.8424 22.9401 18.8727 24.2645C17.8794 25.6125 16.6496 26.5467 15.1833 27.067L21.0367 37ZM12.5936 15.2538H5.9598V24.5128H12.5936C13.8234 24.5128 14.864 24.0634 15.7154 23.1647C16.5905 22.266 17.028 21.1663 17.028 19.8656C17.028 18.5648 16.5905 17.4769 15.7154 16.6019C14.864 15.7032 13.8234 15.2538 12.5936 15.2538ZM35.886 28.6634V19.2625H38.9723V37H35.886V34.4458C34.6562 36.456 32.7406 37.4612 30.1391 37.4612C28.0579 37.4612 26.3905 36.8108 25.1371 35.51C23.8836 34.1856 23.2569 32.4001 23.2569 30.1533V19.2625H26.3432V29.9759C26.3432 31.3949 26.7335 32.5065 27.5139 33.3106C28.2944 34.1147 29.3704 34.5167 30.7421 34.5167C32.3267 34.5167 33.5801 34.0319 34.5025 33.0623C35.4248 32.069 35.886 30.6027 35.886 28.6634ZM46.7574 19.2625V22.2424C47.7744 20.0429 49.6191 18.9432 52.2915 18.9432V22.1714C50.7779 22.1005 49.4772 22.5025 48.3893 23.3776C47.3014 24.2526 46.7574 25.6598 46.7574 27.5991V37H43.6711V19.2625H46.7574ZM69.028 22.3133V19.2625H72.1143V37H69.028V33.9491C67.5144 36.2905 65.2795 37.4612 62.3232 37.4612C59.8163 37.4612 57.6996 36.5625 55.9732 34.7651C54.2231 32.944 53.348 30.7327 53.348 28.1312C53.348 25.5534 54.2231 23.3539 55.9732 21.5329C57.7233 19.7118 59.84 18.8013 62.3232 18.8013C65.2795 18.8013 67.5144 19.972 69.028 22.3133ZM62.7134 34.4813C64.5108 34.4813 66.0126 33.8782 67.2188 32.672C68.4249 31.4186 69.028 29.905 69.028 28.1312C69.028 26.3338 68.4249 24.8321 67.2188 23.6259C66.0126 22.3961 64.5108 21.7812 62.7134 21.7812C60.9397 21.7812 59.4497 22.3961 58.2436 23.6259C57.0374 24.8321 56.4344 26.3338 56.4344 28.1312C56.4344 29.905 57.0374 31.4186 58.2436 32.672C59.4497 33.8782 60.9397 34.4813 62.7134 34.4813ZM79.8767 37H76.7904V11.1032H79.8767V37ZM92.9218 37.4612C90.2493 37.4612 88.0262 36.5743 86.2525 34.8005C84.4787 33.0031 83.5919 30.78 83.5919 28.1312C83.5919 25.4824 84.4787 23.2712 86.2525 21.4974C88.0262 19.7 90.2493 18.8013 92.9218 18.8013C94.6719 18.8013 96.2446 19.227 97.64 20.0784C99.0353 20.9062 100.076 22.0295 100.762 23.4485L98.1721 24.9385C97.7227 23.9925 97.0251 23.2357 96.0791 22.6681C95.1567 22.1005 94.1043 21.8167 92.9218 21.8167C91.148 21.8167 89.6581 22.4198 88.4519 23.6259C87.2694 24.8557 86.6782 26.3575 86.6782 28.1312C86.6782 29.8813 87.2694 31.3713 88.4519 32.6011C89.6581 33.8072 91.148 34.4103 92.9218 34.4103C94.1043 34.4103 95.1685 34.1383 96.1145 33.5944C97.0605 33.0268 97.7819 32.27 98.2785 31.324L100.904 32.8494C100.123 34.2684 99.0235 35.3918 97.6045 36.2195C96.1855 37.0473 94.6246 37.4612 92.9218 37.4612ZM118.679 34.7651C116.881 36.5625 114.67 37.4612 112.045 37.4612C109.42 37.4612 107.209 36.5625 105.411 34.7651C103.614 32.9677 102.715 30.7564 102.715 28.1312C102.715 25.5061 103.614 23.2948 105.411 21.4974C107.209 19.7 109.42 18.8013 112.045 18.8013C114.67 18.8013 116.881 19.7 118.679 21.4974C120.5 23.3185 121.41 25.5297 121.41 28.1312C121.41 30.7327 120.5 32.944 118.679 34.7651ZM112.045 34.4458C113.819 34.4458 115.309 33.8427 116.515 32.6366C117.721 31.4304 118.324 29.9286 118.324 28.1312C118.324 26.3338 117.721 24.8321 116.515 23.6259C115.309 22.4198 113.819 21.8167 112.045 21.8167C110.295 21.8167 108.817 22.4198 107.611 23.6259C106.405 24.8321 105.801 26.3338 105.801 28.1312C105.801 29.9286 106.405 31.4304 107.611 32.6366C108.817 33.8427 110.295 34.4458 112.045 34.4458Z" fill="white"/>
<path d="M133.034 6.96293C133.034 6.96293 132.068 3.3541 131.925 2.73952C131.787 2.12493 131.92 1.13669 132.684 0.507353C133.449 -0.117063 134.213 -0.0138135 134.509 0.0451864C134.805 0.109103 135.811 0.389353 136.146 1.48577C136.521 2.71985 138.114 8.93943 138.114 8.93943C138.114 8.93943 140.668 9.77526 141.344 10.1145C142.216 10.557 142.517 11.0733 142.645 11.5256C142.764 11.9386 142.764 12.1746 142.744 12.3909C142.715 12.7253 142.655 12.858 142.655 12.858C142.655 12.858 141.95 12.9219 140.939 12.8236C139.928 12.7253 136.723 12.1746 136.003 12.0566C135.283 11.9386 131.718 11.1765 131.718 11.1765C131.718 11.1765 130.958 10.7635 130.707 9.72118C130.455 8.67884 131.003 7.92168 131.328 7.59226C131.654 7.26284 131.964 7.13009 132.295 7.03176C132.625 6.93343 133.034 6.96293 133.034 6.96293Z" fill="#D0352F"/>
<path d="M132.724 11.7862C132.724 11.7862 132.28 12.0517 132.024 12.4647C131.693 13.0006 131.639 13.4677 131.718 13.9544C131.816 14.569 131.994 14.8542 132.167 15.0804C132.433 15.4245 132.729 15.5819 132.729 15.5819C132.729 15.5819 136.624 16.5013 138.454 16.8159C140.284 17.1306 141.743 17.342 142.419 17.4109C143.094 17.4797 144.115 17.4699 144.115 17.4699C144.115 17.4699 144.278 17.2486 144.298 16.6439C144.312 16.1964 144.145 15.6359 143.834 15.2131C143.523 14.7903 142.803 14.4363 142.803 14.4363C142.803 14.4363 139.524 13.6349 138.444 13.3841C137.127 13.0744 135.032 12.5188 134.736 12.4106C134.243 12.2287 132.724 11.7862 132.724 11.7862Z" fill="#D0352F"/>
<path d="M134.085 16.2013C134.085 16.2013 133.567 16.6782 133.414 17.1355C133.261 17.5927 133.182 18.1876 133.404 18.7973C133.626 19.402 134.016 19.6823 134.016 19.6823C134.016 19.6823 138.301 21.118 140.027 21.644C141.753 22.1701 144.431 22.9519 145.732 23.4583C147.355 24.0876 148.533 24.7071 149.194 25.6265C150.225 27.0671 150.269 28.5372 150.097 29.7418C149.816 31.7183 149.249 32.5443 149.249 32.5443C149.249 32.5443 150.008 32.3525 150.96 31.2954C152.035 30.1056 152.769 28.7142 152.577 26.8606C152.385 25.007 151.714 23.4583 149.022 21.5555C146.63 19.8642 143.444 18.9448 142.133 18.5367C140.821 18.1286 137.749 17.5632 135.963 16.9339C134.627 16.4619 134.085 16.2013 134.085 16.2013Z" fill="#D0352F"/>
<path d="M137.172 21.6146C137.172 21.6146 138.109 24.5892 139.677 27.254C140.865 29.2699 141.881 30.6465 142.759 31.4332C143.356 31.9691 143.716 32.21 143.716 32.21C143.716 32.21 144.515 31.0153 144.85 30.2679C145.18 29.5206 145.348 28.847 145.387 28.6012C145.427 28.3062 145.402 28.1489 144.914 27.3868C144.367 26.5313 144.081 26.2068 143.464 25.0563C142.932 24.0582 142.715 23.5665 142.715 23.5665C142.715 23.5665 141.462 23.1191 139.864 22.598C138.267 22.0719 137.172 21.6146 137.172 21.6146Z" fill="#D0352F"/>
<path d="M141.846 46.4339C141.846 46.4339 142.862 45.8784 143.01 44.9589C143.153 44.0395 143.01 43.8281 142.719 43.0365C142.428 42.2449 142.448 41.709 142.448 41.709C142.448 41.709 146.314 36.7039 147.162 35.2289C148.247 33.3458 149.145 31.7921 149.411 29.9779C149.663 28.2865 149.396 26.8066 148.494 25.7987C147.572 24.776 146.659 24.5155 145.525 24.4515C144.504 24.3925 143.784 24.486 143.784 24.486C143.784 24.486 144.322 25.4447 144.736 26.1232C145.2 26.8705 145.905 28.0161 145.969 28.2915C146.033 28.5668 145.905 29.1322 145.639 29.8205C145.372 30.5089 145.141 31.0251 144.381 32.2248C143.553 33.5375 142.162 34.7323 142.162 34.7323C142.162 34.7323 142.305 33.2917 142.414 32.446C142.463 32.0822 142.453 32.0183 142.453 32.0183C142.453 32.0183 141.58 31.1431 140.84 30.2335C140.209 29.4616 139.317 27.7605 139.317 27.7605C139.317 27.7605 138.962 28.2079 138.375 30.3466C137.837 32.3182 137.758 34.0292 137.778 34.9486C137.788 35.4599 137.867 35.9172 137.867 35.9172C137.867 35.9172 138.385 39.0098 139.09 40.9961C139.839 43.1152 140.628 44.718 141.126 45.485C141.491 46.0701 141.846 46.4339 141.846 46.4339Z" fill="#77787C"/>
<path d="M134.356 37.8839C134.356 37.8839 134.494 37.0726 135.12 36.5859C135.752 36.0991 136.457 36.0254 137.024 36.1286C137.591 36.2319 137.69 36.3892 137.69 36.3892C137.69 36.3892 137.916 38.646 138.059 39.4376C138.202 40.2291 138.597 42.3974 139.09 43.8183C139.406 44.723 139.706 45.4064 139.948 45.8194C140.239 46.311 140.619 46.8371 140.619 46.8371C140.619 46.8371 140.984 47.4714 140.905 48.1105C140.826 48.7448 140.619 49.143 140.2 49.5659C139.82 49.9543 139.307 50.092 139.307 50.092C139.307 50.092 138.518 49.4675 137.941 48.6366C137.339 47.7713 136.22 45.5293 135.737 43.9855C135.253 42.4318 134.834 40.7601 134.622 39.6047C134.474 38.759 134.356 37.8839 134.356 37.8839Z" fill="#77787C"/>
<path d="M135.811 53.6169C135.811 53.6169 136.378 53.6268 137.108 53.0368C137.837 52.4468 137.847 51.5618 137.813 51.0996C137.783 50.6866 137.512 50.1261 137.246 49.6443C136.979 49.1624 135.993 47.3482 135.569 45.8683C135.145 44.3883 134.745 42.7265 134.642 41.9693C134.538 41.2122 134.464 40.6025 134.464 40.6025C134.464 40.6025 133.942 40.2682 133.315 40.3026C132.689 40.337 132.176 40.5288 131.742 41.0401C131.308 41.5465 131.264 41.8956 131.22 42.0677C131.175 42.2398 131.165 42.52 131.165 42.52C131.165 42.52 131.624 44.6637 131.925 45.647C132.226 46.6303 132.896 48.6068 133.478 49.8704C134.06 51.134 134.395 51.7781 134.785 52.3877C135.071 52.8352 135.115 52.8794 135.303 53.1105C135.5 53.3416 135.811 53.6169 135.811 53.6169Z" fill="#77787C"/>
<path d="M133.399 51.8422C133.399 51.8422 130.653 54.8069 130.268 55.2052C129.883 55.6034 129.301 56.1147 128.152 55.9771C127.003 55.8394 126.412 54.6594 126.397 53.9416C126.377 53.2237 126.397 52.9779 127.013 52.1863C127.63 51.3947 131.604 47.1959 131.604 47.1959C131.604 47.1959 131.733 47.7908 132.019 48.6414C132.324 49.551 132.62 50.2688 132.812 50.6572C133.015 51.0604 133.399 51.8422 133.399 51.8422Z" fill="#77787C"/>
</svg>
