<svg width="24" height="24" viewBox="0 0 24 24" fill="none" xmlns="http://www.w3.org/2000/svg">
<path fill-rule="evenodd" clip-rule="evenodd" d="M3.2 11.1C2.53726 11.1 2 11.6372 2 12.3V17.9C2 18.5627 2.53726 19.1 3.2 19.1H20.8C21.4627 19.1 22 18.5627 22 17.9V12.3C22 11.6372 21.4627 11.1 20.8 11.1H3.2ZM8.06364 14.1909H9.34545C9.32121 13.9015 9.25227 13.6447 9.13864 13.4204C9.025 13.1962 8.875 13.0076 8.68864 12.8545C8.50227 12.7 8.28561 12.5826 8.03864 12.5023C7.79167 12.422 7.52121 12.3818 7.22727 12.3818C6.80909 12.3818 6.4303 12.4735 6.09091 12.6568C5.75151 12.8386 5.48182 13.1076 5.28182 13.4636C5.08182 13.8182 4.98182 14.2545 4.98182 14.7727C4.98182 15.2879 5.07955 15.7235 5.275 16.0795C5.47197 16.4356 5.73939 16.7053 6.07727 16.8886C6.41667 17.072 6.8 17.1636 7.22727 17.1636C7.56818 17.1636 7.86742 17.1113 8.125 17.0068C8.38258 16.9023 8.59848 16.7644 8.77273 16.5932C8.94848 16.4204 9.08409 16.2326 9.17954 16.0295C9.275 15.825 9.3303 15.6242 9.34545 15.4273L8.06364 15.4182C8.04848 15.5182 8.01894 15.6083 7.975 15.6886C7.93258 15.7674 7.87727 15.8348 7.80909 15.8909C7.74091 15.947 7.66061 15.9901 7.56818 16.0204C7.47576 16.0492 7.37121 16.0636 7.25455 16.0636C7.05 16.0636 6.875 16.0159 6.72955 15.9204C6.58409 15.8235 6.47273 15.6795 6.39545 15.4886C6.3197 15.2962 6.28182 15.0576 6.28182 14.7727C6.28182 14.503 6.31894 14.272 6.39318 14.0795C6.46894 13.8871 6.57955 13.7394 6.725 13.6363C6.87197 13.5333 7.05152 13.4818 7.26364 13.4818C7.38485 13.4818 7.49318 13.4992 7.58864 13.5341C7.68409 13.5674 7.76515 13.6159 7.83182 13.6795C7.9 13.7416 7.95303 13.8159 7.99091 13.9023C8.0303 13.9886 8.05454 14.0848 8.06364 14.1909ZM12.3854 13.5454C12.4869 13.6303 12.5437 13.7485 12.5558 13.9H13.7649C13.7634 13.5954 13.6877 13.3295 13.5377 13.1023C13.3892 12.8735 13.1778 12.6962 12.9036 12.5704C12.6293 12.4447 12.3043 12.3818 11.9286 12.3818C11.5604 12.3818 11.2339 12.4439 10.949 12.5682C10.6657 12.6924 10.4437 12.8659 10.2831 13.0886C10.124 13.3098 10.0452 13.5682 10.0467 13.8636C10.0452 14.2273 10.1627 14.5144 10.399 14.725C10.6369 14.9341 10.9619 15.0833 11.374 15.1727L11.8377 15.2727C12.0104 15.3106 12.1475 15.3515 12.249 15.3954C12.3505 15.4379 12.4233 15.4863 12.4672 15.5409C12.5127 15.5939 12.5361 15.656 12.5377 15.7273C12.5361 15.803 12.5119 15.8704 12.4649 15.9295C12.418 15.9886 12.349 16.0348 12.2581 16.0682C12.1672 16.1015 12.0543 16.1182 11.9195 16.1182C11.7589 16.1182 11.6202 16.0932 11.5036 16.0432C11.3884 15.9932 11.299 15.9197 11.2354 15.8227C11.1717 15.7257 11.1361 15.606 11.1286 15.4636H9.92857C9.93008 15.853 10.0134 16.1727 10.1786 16.4227C10.3452 16.6712 10.5786 16.8553 10.8786 16.975C11.1801 17.0947 11.5331 17.1545 11.9377 17.1545C12.3316 17.1545 12.6687 17.0992 12.949 16.9886C13.2308 16.878 13.4475 16.7166 13.599 16.5045C13.7505 16.2924 13.8271 16.0333 13.8286 15.7273C13.8271 15.55 13.7983 15.3863 13.7422 15.2363C13.6877 15.0863 13.6021 14.9515 13.4854 14.8318C13.3687 14.7106 13.2187 14.6053 13.0354 14.5159C12.8521 14.4265 12.6316 14.3545 12.374 14.3L11.9922 14.2182C11.8816 14.1954 11.7861 14.1697 11.7058 14.1409C11.6255 14.1121 11.5596 14.0803 11.5081 14.0454C11.4566 14.0091 11.4187 13.9689 11.3945 13.925C11.3717 13.8795 11.3619 13.8288 11.3649 13.7727C11.3664 13.7045 11.3869 13.6439 11.4263 13.5909C11.4657 13.5379 11.5263 13.4962 11.6081 13.4659C11.6914 13.4341 11.7983 13.4182 11.9286 13.4182C12.1331 13.4182 12.2854 13.4606 12.3854 13.5454ZM16.6645 15.7273L15.71 12.4454H14.2827L15.8191 17.1H17.5463L19.0827 12.4454H17.6554L16.7009 15.7273H16.6645Z" fill="white"/>
<path d="M14 2.26946V6.4C14 6.96005 14 7.24008 14.109 7.45399C14.2049 7.64215 14.3578 7.79513 14.546 7.89101C14.7599 8 15.0399 8 15.6 8H19.7305M20 9.98822V17.2C20 18.8802 20 19.7202 19.673 20.362C19.3854 20.9265 18.9265 21.3854 18.362 21.673C17.7202 22 16.8802 22 15.2 22H8.8C7.11984 22 6.27976 22 5.63803 21.673C5.07354 21.3854 4.6146 20.9265 4.32698 20.362C4 19.7202 4 18.8802 4 17.2V6.8C4 5.11984 4 4.27976 4.32698 3.63803C4.6146 3.07354 5.07354 2.6146 5.63803 2.32698C6.27976 2 7.11984 2 8.8 2H12.0118C12.7455 2 13.1124 2 13.4577 2.08289C13.7638 2.15638 14.0564 2.27759 14.3249 2.44208C14.6276 2.6276 14.887 2.88703 15.4059 3.40589L18.5941 6.59411C19.113 7.11297 19.3724 7.3724 19.5579 7.67515C19.7224 7.94356 19.8436 8.2362 19.9171 8.5423C20 8.88757 20 9.25445 20 9.98822Z" stroke="white" stroke-width="1.5" stroke-linecap="round" stroke-linejoin="round"/>
</svg>
