<svg viewBox="0 0 16 16"
    xmlns="http://www.w3.org/2000/svg">
    <path d="M9.33329 7.33334H5.33329M6.66663 10H5.33329M10.6666 4.66667H5.33329M13.3333 4.53334V11.4667C13.3333 12.5868 13.3333 13.1468 13.1153 13.5747C12.9236 13.951 12.6176 14.2569 12.2413 14.4487C11.8134 14.6667 11.2534 14.6667 10.1333 14.6667H5.86663C4.74652 14.6667 4.18647 14.6667 3.75864 14.4487C3.38232 14.2569 3.07636 13.951 2.88461 13.5747C2.66663 13.1468 2.66663 12.5868 2.66663 11.4667V4.53334C2.66663 3.41323 2.66663 2.85318 2.88461 2.42535C3.07636 2.04903 3.38232 1.74307 3.75864 1.55132C4.18647 1.33334 4.74652 1.33334 5.86663 1.33334H10.1333C11.2534 1.33334 11.8134 1.33334 12.2413 1.55132C12.6176 1.74307 12.9236 2.04903 13.1153 2.42535C13.3333 2.85318 13.3333 3.41323 13.3333 4.53334Z" stroke-width="2" stroke-linecap="round" stroke-linejoin="round" stroke="currentColor"/>
</svg>
