<svg viewBox="0 0 22 24" fill="none" xmlns="http://www.w3.org/2000/svg">
<path d="M16.8334 9.66667V7.33333C16.8334 4.11167 14.2217 1.5 11.0001 1.5C7.77842 1.5 5.16675 4.11167 5.16675 7.33333V9.66667M11.0001 14.9167V17.25M7.26675 22.5H14.7334C16.6936 22.5 17.6737 22.5 18.4224 22.1185C19.081 21.783 19.6164 21.2475 19.9519 20.589C20.3334 19.8403 20.3334 18.8602 20.3334 16.9V15.2667C20.3334 13.3065 20.3334 12.3264 19.9519 11.5777C19.6164 10.9191 19.081 10.3837 18.4224 10.0481C17.6737 9.66667 16.6936 9.66667 14.7334 9.66667H7.26675C5.30656 9.66667 4.32647 9.66667 3.57778 10.0481C2.91921 10.3837 2.38378 10.9191 2.04823 11.5777C1.66675 12.3264 1.66675 13.3065 1.66675 15.2667V16.9C1.66675 18.8602 1.66675 19.8403 2.04823 20.589C2.38378 21.2475 2.91921 21.783 3.57778 22.1185C4.32647 22.5 5.30656 22.5 7.26675 22.5Z" stroke-width="2" stroke-linecap="round" stroke-linejoin="round" stroke="currentColor"/>
</svg>
