<svg viewBox="0 0 26 22" xmlns="http://www.w3.org/2000/svg" stroke="currentColor">
<path d="M1.33325 5.16675L10.859 11.8348C11.6304 12.3747 12.016 12.6447 12.4356 12.7493C12.8061 12.8416 13.1937 12.8416 13.5643 12.7493C13.9838 12.6447 14.3695 12.3747 15.1408 11.8348L24.6666 5.16675M6.93325 20.3334H19.0666C21.0268 20.3334 22.0069 20.3334 22.7556 19.9519C23.4141 19.6164 23.9496 19.081 24.2851 18.4224C24.6666 17.6737 24.6666 16.6936 24.6666 14.7334V7.26675C24.6666 5.30656 24.6666 4.32647 24.2851 3.57778C23.9496 2.91921 23.4141 2.38378 22.7556 2.04823C22.0069 1.66675 21.0268 1.66675 19.0666 1.66675H6.93325C4.97307 1.66675 3.99298 1.66675 3.24429 2.04823C2.58572 2.38378 2.05029 2.91921 1.71473 3.57778C1.33325 4.32647 1.33325 5.30656 1.33325 7.26675V14.7334C1.33325 16.6936 1.33325 17.6737 1.71473 18.4224C2.05029 19.081 2.58572 19.6164 3.24429 19.9519C3.99298 20.3334 4.97307 20.3334 6.93325 20.3334Z" stroke-width="2" stroke-linecap="round" stroke-linejoin="round"/>
</svg>
