<svg width="24" height="24" viewBox="0 0 24 24" fill="none" xmlns="http://www.w3.org/2000/svg">
<path fill-rule="evenodd" clip-rule="evenodd" d="M3.2 11.1C2.53726 11.1 2 11.6373 2 12.3V17.9C2 18.5627 2.53726 19.1 3.2 19.1H20.8C21.4627 19.1 22 18.5627 22 17.9V12.3C22 11.6373 21.4627 11.1 20.8 11.1H3.2ZM5.6 12.4455V17.1H6.86364V15.7182H7.56364C7.91818 15.7182 8.22803 15.6523 8.49318 15.5205C8.75985 15.3886 8.96667 15.2008 9.11364 14.9568C9.26212 14.7129 9.33636 14.4242 9.33636 14.0909C9.33636 13.7606 9.26439 13.472 9.12045 13.225C8.97652 12.978 8.775 12.7864 8.51591 12.65C8.25682 12.5136 7.95455 12.4455 7.60909 12.4455H5.6ZM6.86364 14.7364H7.30909C7.45758 14.7364 7.58409 14.7106 7.68864 14.6591C7.7947 14.6061 7.87576 14.5311 7.93182 14.4341C7.98939 14.3371 8.01818 14.2227 8.01818 14.0909C8.01818 13.9576 7.98939 13.8439 7.93182 13.75C7.87576 13.6546 7.7947 13.5818 7.68864 13.5318C7.58409 13.4803 7.45758 13.4546 7.30909 13.4546H6.86364V14.7364ZM10.184 17.1H11.9749C12.4476 17.1 12.8575 17.0076 13.2045 16.8227C13.5514 16.6364 13.8196 16.3697 14.009 16.0227C14.1984 15.6742 14.2931 15.2576 14.2931 14.7727C14.2931 14.2879 14.1976 13.872 14.0067 13.525C13.8173 13.1765 13.5476 12.9099 13.1976 12.725C12.8492 12.5386 12.4355 12.4455 11.9567 12.4455H10.184V17.1ZM11.9295 16.0273H11.4476V13.5182H11.8931C12.1355 13.5182 12.3401 13.5553 12.5067 13.6296C12.6749 13.7038 12.8022 13.8318 12.8885 14.0136C12.9764 14.1955 13.0204 14.4485 13.0204 14.7727C13.0204 15.097 12.9772 15.35 12.8908 15.5318C12.806 15.7136 12.6817 15.8417 12.5181 15.9159C12.356 15.9902 12.1598 16.0273 11.9295 16.0273ZM18.5345 12.4455H15.2618V17.1H16.5254V15.2818H18.3345V14.2636H16.5254V13.4636H18.5345V12.4455Z" fill="white"/>
<path d="M14 2.26946V6.4C14 6.96005 14 7.24008 14.109 7.45399C14.2049 7.64215 14.3578 7.79513 14.546 7.89101C14.7599 8 15.0399 8 15.6 8H19.7305M20 9.98822V17.2C20 18.8802 20 19.7202 19.673 20.362C19.3854 20.9265 18.9265 21.3854 18.362 21.673C17.7202 22 16.8802 22 15.2 22H8.8C7.11984 22 6.27976 22 5.63803 21.673C5.07354 21.3854 4.6146 20.9265 4.32698 20.362C4 19.7202 4 18.8802 4 17.2V6.8C4 5.11984 4 4.27976 4.32698 3.63803C4.6146 3.07354 5.07354 2.6146 5.63803 2.32698C6.27976 2 7.11984 2 8.8 2H12.0118C12.7455 2 13.1124 2 13.4577 2.08289C13.7638 2.15638 14.0564 2.27759 14.3249 2.44208C14.6276 2.6276 14.887 2.88703 15.4059 3.40589L18.5941 6.59411C19.113 7.11297 19.3724 7.3724 19.5579 7.67515C19.7224 7.94356 19.8436 8.2362 19.9171 8.5423C20 8.88757 20 9.25445 20 9.98822Z" stroke="white" stroke-width="2" stroke-linecap="round" stroke-linejoin="round"/>
</svg>
